<svg width="491" height="491" viewBox="0 0 491 491" fill="none" xmlns="http://www.w3.org/2000/svg">
<g clip-path="url(#clip0_206_2)">
<path d="M0 121.05V369.25C0 403.45 27.9 431.35 62.1 431.35H262.7C296.9 431.35 324.8 403.45 324.8 369.25V329.05C324.8 322.25 319.3 316.75 312.5 316.75C305.7 316.75 300.2 322.25 300.2 329.05V369.25C300.2 389.95 283.3 406.85 262.6 406.85H62.1C41.4 406.85 24.5 389.95 24.5 369.25V121.05C24.5 100.35 41.4 83.45 62.1 83.45H262.7C283.4 83.45 300.3 100.35 300.3 121.05V161.25C300.3 168.05 305.8 173.55 312.6 173.55C319.4 173.55 324.9 168.05 324.9 161.25V121.05C324.9 86.85 297 58.95 262.8 58.95H62.1C27.9 58.95 0 86.75 0 121.05Z" fill="white"/>
<path d="M385.4 337.65C387.8 340.05 390.9 341.25 394.1 341.25C397.3 341.25 400.4 340.05 402.8 337.65L486.7 253.75C491.5 248.95 491.5 241.25 486.7 236.45L402.8 152.55C398 147.75 390.3 147.75 385.5 152.55C380.7 157.35 380.7 165.05 385.5 169.85L448.5 232.85H218.6C211.8 232.85 206.3 238.35 206.3 245.15C206.3 251.95 211.8 257.45 218.6 257.45H448.4L385.4 320.45C380.6 325.15 380.6 332.95 385.4 337.65Z" fill="white"/>
</g>
<defs>
<clipPath id="clip0_206_2">
<rect width="490.3" height="490.3" fill="white"/>
</clipPath>
</defs>
</svg>
