<svg width="43" height="39" viewBox="0 0 43 39" fill="none" xmlns="http://www.w3.org/2000/svg">
<path d="M37.5546 26H15.0348C14.6611 26.0005 14.2984 25.8888 14.0061 25.683C13.7138 25.4773 13.5094 25.1898 13.4265 24.8678L9.63457 10.2691C9.57911 10.0558 9.57878 9.83423 9.63361 9.62085C9.68843 9.40747 9.79701 9.20776 9.95126 9.03658C10.1055 8.86541 10.3014 8.72718 10.5245 8.63217C10.7476 8.53717 10.992 8.48784 11.2396 8.48786H41.3498C41.5977 8.4874 41.8425 8.53641 42.066 8.63122C42.2895 8.72604 42.4858 8.86421 42.6404 9.03544C42.7951 9.20667 42.9039 9.40654 42.9589 9.62014C43.0139 9.83374 43.0137 10.0556 42.9582 10.2691L39.1597 24.8678C39.0768 25.1893 38.8729 25.4764 38.5813 25.6821C38.2897 25.8878 37.9277 25.9999 37.5546 26V26ZM16.3456 23.0896H36.2438L39.2815 11.4012H13.3068L16.3456 23.0896Z" fill="white"/>
<path d="M18.2569 38.9999C17.0089 38.9999 15.7888 38.6729 14.7511 38.0601C13.7134 37.4474 12.9046 36.5765 12.4269 35.5575C11.9493 34.5386 11.8244 33.4173 12.0679 32.3356C12.3113 31.2539 12.9123 30.2603 13.7949 29.4804C14.6774 28.7005 15.8018 28.1694 17.0259 27.9543C18.2499 27.7391 19.5187 27.8495 20.6718 28.2716C21.8249 28.6937 22.8104 29.4084 23.5038 30.3254C24.1972 31.2425 24.5673 32.3206 24.5673 33.4235C24.5655 34.902 23.9001 36.3195 22.7171 37.3649C21.5341 38.4104 19.93 38.9984 18.2569 38.9999V38.9999ZM18.2569 30.7585C17.6602 30.7585 17.0769 30.9149 16.5808 31.2079C16.0846 31.5009 15.6979 31.9173 15.4696 32.4045C15.2413 32.8917 15.1817 33.4278 15.2981 33.945C15.4146 34.4621 15.7021 34.9372 16.1241 35.31C16.5461 35.6828 17.0838 35.9366 17.6691 36.0394C18.2543 36.1421 18.861 36.0892 19.4122 35.8873C19.9634 35.6853 20.4345 35.3435 20.7659 34.9049C21.0973 34.4664 21.274 33.9508 21.2738 33.4235C21.2729 32.7168 20.9548 32.0392 20.3891 31.5396C19.8235 31.0399 19.0567 30.759 18.2569 30.7585V30.7585Z" fill="white"/>
<path d="M34.3314 38.9999C33.0833 38.9999 31.8633 38.6729 30.8256 38.0601C29.7878 37.4474 28.979 36.5765 28.5014 35.5575C28.0238 34.5386 27.8988 33.4173 28.1423 32.3356C28.3858 31.2539 28.9868 30.2603 29.8693 29.4804C30.7518 28.7005 31.8762 28.1694 33.1003 27.9543C34.3244 27.7391 35.5932 27.8495 36.7463 28.2716C37.8993 28.6937 38.8849 29.4084 39.5783 30.3254C40.2716 31.2425 40.6417 32.3206 40.6417 33.4235C40.64 34.902 39.9746 36.3195 38.7916 37.3649C37.6085 38.4104 36.0045 38.9984 34.3314 38.9999V38.9999ZM34.3314 30.7585C33.7347 30.7585 33.1514 30.9149 32.6552 31.2079C32.1591 31.5009 31.7724 31.9173 31.5441 32.4045C31.3158 32.8917 31.2561 33.4278 31.3726 33.945C31.4891 34.4621 31.7765 34.9372 32.1986 35.31C32.6206 35.6828 33.1582 35.9366 33.7435 36.0394C34.3288 36.1421 34.9354 36.0892 35.4867 35.8873C36.0379 35.6853 36.509 35.3435 36.8403 34.9049C37.1717 34.4664 37.3485 33.9508 37.3482 33.4235C37.3474 32.7168 37.0292 32.0392 36.4636 31.5396C35.898 31.0399 35.1312 30.759 34.3314 30.7585Z" fill="white"/>
<path d="M11.2396 11.3983C10.8939 11.3983 10.557 11.3021 10.2767 11.1235C9.99628 10.9448 9.78662 10.6927 9.67739 10.4029L6.85486 2.91045H1.64675C1.21 2.91045 0.791146 2.75713 0.482321 2.48422C0.173496 2.21131 0 1.84117 0 1.45522C0 1.06927 0.173496 0.699132 0.482321 0.426225C0.791146 0.153318 1.21 0 1.64675 0H8.04711C8.39277 2.82628e-05 8.72966 0.0961778 9.01005 0.274826C9.29043 0.453474 9.50009 0.705562 9.60932 0.995373L12.8073 9.4832C12.8897 9.70193 12.9122 9.93484 12.8728 10.1627C12.8334 10.3906 12.7333 10.607 12.5808 10.794C12.4282 10.981 12.2276 11.1334 11.9953 11.2384C11.7631 11.3435 11.506 11.3983 11.2451 11.3983H11.2396Z" fill="white"/>
</svg>
