<svg width="50" height="50" viewBox="0 0 50 50" fill="none" xmlns="http://www.w3.org/2000/svg">
<path d="M38.6221 43.9453H12.2852C11.8967 43.9453 11.5241 43.791 11.2494 43.5163C10.9746 43.2416 10.8203 42.869 10.8203 42.4805V19.2383C10.8203 18.8498 10.9746 18.4772 11.2494 18.2025C11.5241 17.9278 11.8967 17.7734 12.2852 17.7734C12.6737 17.7734 13.0462 17.9278 13.321 18.2025C13.5957 18.4772 13.75 18.8498 13.75 19.2383V41.0156H37.1572V19.2383C37.1572 18.8498 37.3116 18.4772 37.5863 18.2025C37.861 17.9278 38.2336 17.7734 38.6221 17.7734C39.0106 17.7734 39.3832 17.9278 39.6579 18.2025C39.9326 18.4772 40.0869 18.8498 40.0869 19.2383V42.4805C40.0869 42.869 39.9326 43.2416 39.6579 43.5163C39.3832 43.791 39.0106 43.9453 38.6221 43.9453Z" fill="white"/>
<path d="M43.4678 25.5518C43.2754 25.5519 43.0848 25.5141 42.9071 25.4405C42.7293 25.367 42.5677 25.2591 42.4316 25.1231L25.4531 8.14458L8.47461 25.1231C8.19834 25.3899 7.82832 25.5376 7.44424 25.5342C7.06016 25.5309 6.69276 25.3768 6.42117 25.1053C6.14958 24.8337 5.99552 24.4663 5.99218 24.0822C5.98884 23.6981 6.13649 23.3281 6.40333 23.0518L24.4141 5.03716C24.6888 4.76255 25.0613 4.60828 25.4497 4.60828C25.8381 4.60828 26.2107 4.76255 26.4854 5.03716L44.5039 23.0518C44.7086 23.2567 44.8479 23.5177 44.9043 23.8018C44.9607 24.0859 44.9316 24.3803 44.8207 24.6478C44.7098 24.9154 44.5221 25.144 44.2813 25.3049C44.0405 25.4658 43.7574 25.5517 43.4678 25.5518V25.5518Z" fill="white"/>
<path d="M28.9609 43.5781H20.4648C20.0763 43.5781 19.7038 43.4238 19.429 43.1491C19.1543 42.8744 19 42.5018 19 42.1133V29.4648C19 29.0763 19.1543 28.7038 19.429 28.429C19.7038 28.1543 20.0763 28 20.4648 28H28.9609C29.3494 28 29.722 28.1543 29.9967 28.429C30.2714 28.7038 30.4258 29.0763 30.4258 29.4648V42.1133C30.4258 42.5018 30.2714 42.8744 29.9967 43.1491C29.722 43.4238 29.3494 43.5781 28.9609 43.5781ZM21.9297 40.6484H27.4961V30.9297H21.9297V40.6484Z" fill="white"/>
</svg>
