<svg width="34" height="39" viewBox="0 0 34 39" fill="none" xmlns="http://www.w3.org/2000/svg">
<path d="M16.7143 19.5C18.6427 19.5 20.5277 18.9282 22.1311 17.8568C23.7345 16.7855 24.9842 15.2627 25.7221 13.4812C26.4601 11.6996 26.6531 9.73919 26.2769 7.84787C25.9007 5.95656 24.9721 4.21927 23.6086 2.85571C22.245 1.49215 20.5077 0.563554 18.6164 0.187348C16.7251 -0.188858 14.7647 0.00422451 12.9831 0.742179C11.2015 1.48013 9.6788 2.72981 8.60746 4.33319C7.53611 5.93657 6.96429 7.82164 6.96429 9.75C6.96429 12.3359 7.99152 14.8158 9.82 16.6443C11.6485 18.4728 14.1284 19.5 16.7143 19.5ZM16.7143 2.78572C18.0917 2.78572 19.4382 3.19417 20.5834 3.95941C21.7287 4.72466 22.6213 5.81233 23.1484 7.08489C23.6756 8.35744 23.8135 9.75773 23.5448 11.1087C23.276 12.4596 22.6128 13.7005 21.6388 14.6745C20.6648 15.6485 19.4239 16.3118 18.073 16.5805C16.722 16.8492 15.3217 16.7113 14.0492 16.1842C12.7766 15.6571 11.6889 14.7644 10.9237 13.6192C10.1584 12.4739 9.75 11.1274 9.75 9.75C9.75 7.90296 10.4837 6.13157 11.7898 4.82551C13.0958 3.51945 14.8672 2.78572 16.7143 2.78572V2.78572Z" fill="white"/>
<path d="M18.1071 22.2857H15.3214C11.2579 22.2857 7.36087 23.8999 4.48754 26.7732C1.61422 29.6466 0 33.5436 0 37.6071C0 37.9765 0.146747 38.3308 0.407959 38.592C0.66917 38.8532 1.02345 39 1.39286 39H32.0357C32.4051 39 32.7594 38.8532 33.0206 38.592C33.2818 38.3308 33.4286 37.9765 33.4286 37.6071C33.4286 33.5436 31.8144 29.6466 28.941 26.7732C26.0677 23.8999 22.1706 22.2857 18.1071 22.2857ZM2.86929 36.2143C3.21178 33.1509 4.67096 30.3211 6.96802 28.2655C9.26507 26.21 12.2389 25.0729 15.3214 25.0714H18.1071C21.1896 25.0729 24.1635 26.21 26.4605 28.2655C28.7576 30.3211 30.2168 33.1509 30.5593 36.2143H2.86929Z" fill="white"/>
</svg>
